<?xml version="1.0" standalone="no"?>
<!DOCTYPE svg PUBLIC "-//W3C//DTD SVG 20010904//EN"
 "http://www.w3.org/TR/2001/REC-SVG-20010904/DTD/svg10.dtd">
<svg version="1.0" xmlns="http://www.w3.org/2000/svg"
 width="1500.000000pt" height="1500.000000pt" viewBox="0 0 1500.000000 1500.000000"
 preserveAspectRatio="xMidYMid meet">
<metadata>
Created by potrace 1.16, written by Peter Selinger 2001-2019
</metadata>
<g transform="translate(0.000000,1500.000000) scale(0.100000,-0.100000)"
fill="#000000" stroke="none">
<path d="M0 7500 l0 -7500 7500 0 7500 0 0 7500 0 7500 -7500 0 -7500 0 0
-7500z m7858 5200 c18 -11 41 -34 52 -52 19 -32 20 -52 20 -578 0 -601 1 -587
-63 -634 -27 -20 -43 -21 -370 -24 -383 -3 -388 -2 -435 67 l-22 35 2 562 3
563 30 31 c17 18 39 36 50 40 11 5 173 9 360 9 322 1 342 0 373 -19z m2341
-824 c50 -26 51 -36 51 -486 l0 -420 -95 0 -95 0 0 414 c0 276 4 424 11 445
11 32 49 60 82 61 10 0 30 -6 46 -14z m-4611 -142 c15 -4 22 -14 22 -30 0 -70
41 -94 93 -54 31 25 31 25 67 -2 35 -26 37 -39 9 -77 -11 -16 -19 -39 -17 -52
2 -20 10 -25 43 -29 55 -8 65 -16 65 -54 0 -38 -15 -56 -48 -56 -60 0 -79 -40
-42 -87 26 -34 25 -44 -8 -76 l-29 -27 -37 25 c-59 40 -73 34 -91 -40 -10 -39
-11 -40 -55 -40 -43 0 -44 1 -55 40 -19 74 -35 81 -90 40 l-33 -26 -31 27
c-36 30 -38 42 -11 77 38 48 22 83 -39 89 -29 2 -36 8 -43 33 -11 42 -1 65 27
65 71 0 95 41 55 93 -25 32 -25 45 2 74 26 28 38 29 72 2 15 -12 37 -19 53
-17 24 3 29 9 37 48 12 59 27 69 84 54z m4397 -99 l25 -24 0 -321 0 -320 -90
0 -90 0 0 311 c0 316 2 338 39 366 28 22 89 16 116 -12z m-234 -234 l29 -29 0
-201 0 -201 -90 0 -90 0 0 204 0 204 31 26 c41 35 83 34 120 -3z m-4785 -49
c5 -4 21 -25 34 -47 29 -49 37 -55 73 -55 22 0 34 10 63 55 38 61 40 61 114
27 25 -12 34 -23 32 -37 -1 -11 -5 -41 -8 -66 -8 -59 13 -84 63 -75 112 20
100 23 124 -27 12 -25 19 -52 16 -61 -4 -9 -27 -28 -52 -44 -40 -24 -45 -31
-45 -64 0 -34 4 -39 50 -64 33 -18 50 -34 50 -46 0 -24 -28 -90 -41 -99 -6 -4
-36 0 -67 8 -54 14 -55 14 -80 -11 -25 -24 -25 -25 -10 -79 9 -30 13 -59 9
-65 -9 -15 -101 -53 -112 -47 -5 4 -21 26 -35 51 -39 67 -89 73 -122 13 -40
-72 -42 -73 -100 -53 -28 10 -54 24 -56 31 -3 7 0 38 6 68 10 49 9 58 -8 76
-19 21 -36 22 -121 4 -29 -7 -33 -4 -53 35 -12 23 -20 49 -18 58 2 8 23 28 48
42 41 24 45 30 48 68 3 40 2 42 -48 67 -28 14 -53 32 -56 39 -3 7 4 34 16 61
l20 48 43 -7 c23 -3 51 -8 63 -12 14 -4 30 3 49 19 l29 24 -17 59 c-19 65 -17
68 40 95 45 21 45 21 59 11z m4555 -178 c21 -22 24 -37 27 -115 l4 -89 -97 0
-97 0 4 90 c4 77 7 93 28 115 33 35 97 35 131 -1z m-5945 -985 c156 -21 333
-100 443 -196 28 -25 51 -52 51 -61 0 -25 -71 -92 -97 -92 -13 0 -52 21 -86
48 -136 104 -272 146 -467 146 -195 0 -310 -35 -458 -141 -40 -29 -84 -53 -96
-53 -21 0 -96 68 -96 86 0 35 120 129 235 184 165 80 367 108 571 79z m7639
-284 c181 -47 316 -196 345 -380 28 -172 -53 -359 -196 -454 -26 -17 -50 -28
-55 -25 -4 2 22 35 60 72 79 78 115 147 132 250 31 185 -69 375 -239 455 -61
29 -76 32 -162 32 -86 0 -101 -3 -162 -32 -170 -80 -270 -270 -239 -455 16
-97 54 -171 123 -242 32 -33 58 -61 58 -63 0 -2 -9 -3 -20 -3 -34 0 -143 117
-178 191 -170 357 152 753 533 654z m-7626 -41 c67 -18 157 -65 211 -111 64
-55 66 -66 24 -113 -45 -50 -69 -51 -126 -3 -153 129 -412 129 -555 -1 -50
-44 -77 -45 -120 -4 -43 42 -42 68 6 111 140 126 358 173 560 121z m3070 -168
c31 -16 51 -54 51 -95 0 -22 6 -30 25 -35 72 -18 72 -184 0 -202 -21 -5 -25
-12 -25 -41 0 -45 -22 -86 -55 -101 -19 -9 -136 -12 -420 -12 l-393 0 -31 26
-31 26 0 198 0 198 31 26 31 26 394 0 c322 0 400 -3 423 -14z m4535 0 c19 -8
52 -31 74 -51 114 -102 114 -287 1 -390 -55 -49 -70 -44 -22 8 81 88 95 200
37 293 -40 64 -97 93 -184 93 -87 0 -144 -29 -184 -93 -56 -91 -44 -204 32
-288 23 -25 29 -38 19 -38 -20 0 -83 72 -102 117 -21 48 -21 158 -2 205 21 50
80 113 130 137 50 25 150 28 201 7z m-7628 -141 c48 -24 114 -84 114 -104 0
-5 -18 -25 -40 -45 -43 -39 -58 -39 -100 0 -32 29 -72 44 -120 44 -48 0 -88
-15 -120 -44 -39 -36 -56 -38 -90 -10 -49 42 -54 58 -25 93 83 98 255 128 381
66z m7569 -29 c64 -27 82 -111 36 -161 -19 -19 -19 -24 -5 -105 34 -199 94
-351 180 -457 l27 -33 -57 0 -57 0 -37 60 -37 60 -85 0 -85 0 -35 -51 c-19
-28 -45 -55 -58 -60 -25 -10 -82 -12 -82 -4 0 3 15 24 33 48 77 101 150 302
163 448 6 59 4 71 -15 95 -42 53 -21 139 39 163 34 13 36 13 75 -3z m-7654
-229 c74 -49 58 -157 -26 -186 -37 -12 -45 -12 -78 4 -61 29 -82 87 -52 145
31 59 99 75 156 37z m5644 -427 c17 -19 31 -20 222 -20 216 0 250 -6 273 -49
6 -12 10 -129 10 -306 0 -299 -4 -333 -45 -349 -9 -3 -174 -6 -365 -6 l-349 0
-26 34 c-22 28 -32 66 -62 235 -19 112 -32 212 -29 226 4 14 18 31 31 37 22
10 25 18 25 61 0 43 4 53 35 84 19 19 35 38 35 42 0 23 31 31 125 31 89 0 104
-3 120 -20z m-4257 -949 c42 -22 63 -43 86 -88 14 -28 16 -81 16 -406 l0 -373
-29 -46 c-19 -30 -44 -52 -73 -67 -44 -21 -52 -21 -603 -21 -549 0 -559 0
-603 21 -26 13 -54 38 -70 62 l-27 41 -3 377 c-3 357 -2 381 17 416 21 42 42
63 86 86 26 14 99 16 598 17 538 0 570 -1 605 -19z m6984 -769 c23 -23 23 -23
26 -386 l3 -364 -27 -31 -26 -31 -189 0 -189 0 0 -30 0 -30 170 0 c164 0 170
-1 170 -20 0 -20 -5 -20 -497 -18 -435 3 -498 5 -498 18 0 13 29 15 193 18
l192 2 0 30 0 30 -209 0 c-207 0 -210 0 -238 24 l-28 24 -3 344 c-2 228 0 355
8 380 20 70 3 68 592 65 l527 -2 23 -23z m551 12 c63 -21 112 -77 126 -143 15
-68 15 -593 0 -661 -23 -110 -96 -152 -259 -153 -120 -1 -171 12 -216 55 -54
51 -59 88 -59 433 0 336 4 372 53 426 15 16 45 36 67 44 56 20 228 19 288 -1z
m-7995 -320 c12 -8 22 -24 22 -35 0 -15 7 -19 30 -19 34 0 80 -38 80 -65 0 -9
-11 -27 -25 -40 l-24 -25 -253 0 c-285 0 -298 3 -298 64 0 41 17 56 70 63 30
4 40 10 40 24 0 40 36 49 190 49 116 0 150 -3 168 -16z m1506 -1015 c90 -25
156 -94 177 -186 l12 -53 46 0 c91 0 195 -82 221 -175 36 -128 -45 -271 -171
-305 -25 -7 -219 -10 -543 -8 l-504 3 -44 30 c-58 41 -88 96 -88 162 0 65 13
99 53 142 42 44 84 61 149 61 l53 0 18 49 c18 52 54 93 102 119 42 22 143 22
178 0 34 -23 34 -23 42 14 11 47 92 124 151 142 60 18 97 19 148 5z m-2640
-119 c155 -53 280 -189 315 -341 6 -24 11 -76 11 -115 0 -131 -48 -241 -149
-338 -192 -182 -490 -179 -677 8 -266 267 -139 707 233 801 74 19 189 12 267
-15z m6269 -79 c345 -34 380 -39 399 -59 27 -27 27 -46 -6 -380 l-25 -253
-132 -159 c-114 -139 -135 -160 -160 -160 -77 0 -976 93 -986 102 -20 16 -15
87 6 122 11 17 76 78 144 136 l123 105 27 269 c23 242 28 271 48 292 37 39 5
40 562 -15z"/>
<path d="M7170 12185 l0 -405 315 0 315 0 0 405 0 405 -315 0 -315 0 0 -405z"/>
<path d="M7437 11680 c-21 -17 -27 -30 -27 -59 0 -40 18 -63 57 -75 26 -8 78
16 87 39 29 77 -53 145 -117 95z"/>
<path d="M5491 11514 c-53 -45 -51 -132 5 -169 31 -20 103 -19 130 3 55 44 59
109 10 158 -44 44 -99 47 -145 8z"/>
<path d="M5004 11090 c-78 -39 -108 -142 -61 -210 36 -53 71 -74 125 -74 94 0
157 60 157 149 0 117 -117 188 -221 135z"/>
<path d="M5840 9631 c-6 -11 -10 -88 -10 -180 0 -132 3 -162 16 -175 13 -14
63 -16 390 -16 361 0 375 1 394 20 18 18 20 33 20 169 0 82 -4 161 -10 175
l-10 26 -389 0 c-376 0 -391 -1 -401 -19z m140 -172 l0 -170 -52 3 -53 3 -3
154 c-2 104 1 158 9 167 7 8 30 14 55 14 l44 0 0 -171z m160 1 l0 -170 -55 0
-55 0 0 170 0 170 55 0 55 0 0 -170z m150 0 l0 -170 -55 0 -55 0 0 170 0 170
55 0 55 0 0 -170z"/>
<path d="M11087 9203 c-10 -10 -8 -83 2 -83 36 0 51 32 35 74 -6 16 -26 21
-37 9z"/>
<path d="M11048 9010 l-16 -50 70 0 c57 0 69 3 65 14 -3 8 -9 31 -13 50 -6 35
-8 36 -48 36 -42 0 -42 0 -58 -50z"/>
<path d="M8902 8778 c-7 -7 -12 -17 -12 -23 0 -5 -10 -15 -22 -20 -11 -6 -28
-20 -36 -32 l-14 -23 343 0 c325 0 346 -1 377 -20 l32 -20 0 45 c0 34 -5 47
-19 55 -12 6 -101 10 -220 10 -190 0 -201 1 -211 20 -10 18 -21 20 -108 20
-63 0 -102 -4 -110 -12z"/>
<path d="M3784 7780 c-52 -21 -54 -32 -54 -350 0 -322 1 -325 57 -349 21 -8
157 -11 496 -9 l467 3 27 28 28 27 0 293 c0 265 -2 295 -18 320 -10 16 -29 32
-43 37 -32 12 -931 12 -960 0z"/>
<path d="M10800 7100 c-19 -19 -20 -33 -20 -333 0 -291 1 -315 18 -330 17 -15
66 -17 495 -17 464 0 478 1 497 20 19 19 20 33 20 329 l0 310 -26 20 c-26 21
-36 21 -495 21 -456 0 -470 -1 -489 -20z"/>
<path d="M12107 6983 c-4 -3 -7 -12 -7 -20 0 -10 35 -13 170 -13 139 0 170 3
170 14 0 8 -7 17 -16 20 -21 8 -309 8 -317 -1z"/>
<path d="M12107 6824 c-4 -4 -7 -13 -7 -21 0 -11 32 -13 168 -11 141 3 167 5
167 18 0 13 -26 15 -161 18 -88 1 -163 -1 -167 -4z"/>
<path d="M12230 6440 c-53 -53 14 -136 75 -96 33 22 35 78 3 100 -30 21 -54
20 -78 -4z"/>
<path d="M2983 5631 c-105 -39 -180 -107 -231 -211 -24 -49 -27 -66 -27 -160
0 -99 2 -110 32 -171 170 -345 688 -270 754 109 30 168 -67 345 -228 420 -78
36 -222 42 -300 13z m386 -124 c8 -11 -10 -36 -85 -115 -53 -56 -100 -102
-105 -102 -5 0 -12 7 -15 15 -4 9 27 51 86 115 51 55 96 100 100 100 4 0 13
-6 19 -13z m-381 -119 c68 -61 89 -98 56 -98 -24 0 -164 130 -157 146 9 25 30
15 101 -48z m160 -94 c43 -30 18 -94 -37 -94 -34 0 -51 17 -51 51 0 27 30 59
55 59 6 0 21 -7 33 -16z"/>
<path d="M9060 5324 c-13 -136 -19 -239 -14 -243 10 -9 711 -77 719 -70 3 3
15 111 28 240 l23 235 -351 33 c-192 18 -357 35 -366 37 -13 4 -19 -29 -39
-232z m381 90 c127 -69 133 -74 86 -74 -20 0 -37 -3 -37 -7 0 -5 26 -37 57
-72 l57 -63 -25 -19 -24 -19 -65 71 -65 71 -18 -37 c-10 -21 -20 -35 -23 -33
-6 7 -54 204 -54 224 0 8 2 14 4 14 1 0 50 -25 107 -56z"/>
<path d="M8976 4961 c-15 -17 -15 -19 -1 -25 32 -12 87 -6 111 13 l23 18 -46
7 c-65 9 -68 8 -87 -13z"/>
<path d="M9151 4941 l-24 -18 53 -7 c41 -5 58 -3 78 10 25 16 25 18 7 25 -35
14 -89 9 -114 -10z"/>
<path d="M9329 4924 l-20 -21 53 -6 c46 -5 56 -2 77 18 l24 23 -57 4 c-48 2
-60 0 -77 -18z"/>
<path d="M9512 4912 c-30 -23 -19 -32 39 -32 32 0 54 6 70 20 l24 19 -35 1
c-19 0 -44 2 -55 5 -11 3 -30 -3 -43 -13z"/>
<path d="M8877 4873 c-23 -26 -13 -33 42 -33 30 0 55 7 71 20 l25 20 -25 0
c-14 0 -41 3 -60 6 -27 4 -39 1 -53 -13z"/>
<path d="M9056 4851 c-16 -17 -15 -19 15 -25 52 -10 75 -7 93 13 16 17 16 19
-6 25 -43 11 -85 6 -102 -13z"/>
<path d="M9226 4831 c-16 -18 -15 -19 36 -23 41 -4 58 -2 75 12 30 23 20 30
-42 30 -38 0 -56 -5 -69 -19z"/>
<path d="M9411 4816 l-24 -26 60 0 c47 0 64 4 78 20 18 20 17 20 -16 20 -19 0
-43 3 -54 6 -14 3 -28 -3 -44 -20z"/>
</g>
</svg>
